{"title":"Detention 2010 DVDRip Xvid AC3 LKRG","uid":5957428,"size":706730900,"categoryP":"video","categoryS":"movies","magnet":"?xt=urn:btih:9c068a1cb35c1d41e9fce82252fd6bc33963a470&amp;dn=Detention+2010+DVDRip+Xvid+AC3+LKRG&amp;tr=udp%3A%2F%2Ftracker.openbittorrent.com%3A80&amp;tr=udp%3A%2F%2Fopen.demonii.com%3A1337&amp;tr=udp%3A%2F%2Ftracker.coppersurfer.tk%3A6969&amp;tr=udp%3A%2F%2Fexodus.desync.com%3A6969","seeders":1,"leechers":0,"uploader":"deffjam555","files":51,"time":1289784473,"description":"\n\nFormat;Avi\n\nFile Size:693mb\n\nVideo: ID : 0\nFormat : MPEG-4 Visual\nFormat profile : Simple@L3\nFormat settings, BVOP : No\nFormat settings, QPel : No\nFormat settings, GMC : No warppoints\nFormat settings, Matrix : Default (H.263)\nCodec ID : XVID\nCodec ID/Hint : XviD\nDuration : 1h 20mn\nBit rate : 938 Kbps\nWidth : 688 pixels\nHeight : 384 pixels\nDisplay aspect ratio : 16:9\nFrame rate : 25.000 fps\nColor space : YUV\nChroma subsampling : 4:2:0\nBit depth : 8 bits\nScan type : Progressive\nBits/(Pixel*Frame) : 0.142\nStream size : 542 MiB (78%)\nWriting library : XviD 1.2.1 (UTC 2008-12-04)\n\nAudio: ID : 1\nFormat : AC-3\nFormat/Info : Audio Coding 3\nMode extension : CM (complete main)\nCodec ID : 2000\nDuration : 1h 20mn\nBit rate mode : Constant\nBit rate : 256 Kbps\nChannel(s) : 6 channels\nChannel positions : Front: L C R, Side: L R, LFE\nSampling rate : 48.0 KHz\nBit depth : 16 bits\nStream size : 148 MiB (21%)\nAlignment : Split accross interleaves\nInterleave, duration : 500 ms (12.50 video frames)\nInterleave, preload duration : 500 ms\n\nDuration:1:20\n\nRelease Date:2010\n\nLanguage:English\n\nPlot: A group of high school students are sent to Detention. Abandoned and locked in, images of Ghosts appear as they attempt to escape, only to find themselves connected to a past horrific death and made responsible for it with their lives.\n\nCast:\nDavid Carradine ...\nPrincipal Hoskins\nBilly Aaron Brown Billy Aaron Brown ...\nJack\nThomas Calabro Thomas Calabro ...\nCoach L\nZelda Williams Zelda Williams ...\nSara\nPreston Jones Preston Jones ...\nPaul\nBlack Thomas Black Thomas ...\nJackson\nRachel Sterling Rachel Sterling ...\nMimi\n\nscreens\n &lt;a href=&quot;\nhttp://img593.imageshack.us/img593/945/k0hbny.jpg&quot; rel=&quot;nofollow&quot; target=&quot;_NEW&quot;&gt;\nhttp://img593.imageshack.us/img593/945/k0hbny.jpg&lt;/a&gt; &lt;a href=&quot;\nhttp://img15.imageshack.us/img15/4022/jrbda7.jpg&quot; rel=&quot;nofollow&quot; target=&quot;_NEW&quot;&gt;\nhttp://img15.imageshack.us/img15/4022/jrbda7.jpg&lt;/a&gt; &lt;a href=&quot;\nhttp://img219.imageshack.us/img219/2428/59l9sb.jpg&quot; rel=&quot;nofollow&quot; target=&quot;_NEW&quot;&gt;\nhttp://img219.imageshack.us/img219/2428/59l9sb.jpg&lt;/a&gt; &lt;a href=&quot;\nhttp://img844.imageshack.us/img844/7421/pjjc87.jpg&quot; rel=&quot;nofollow&quot; target=&quot;_NEW&quot;&gt;\nhttp://img844.imageshack.us/img844/7421/pjjc87.jpg&lt;/a&gt; &lt;a href=&quot;\nhttp://img502.imageshack.us/img502/2774/d6w3tk.jpg&quot; rel=&quot;nofollow&quot; target=&quot;_NEW&quot;&gt;\nhttp://img502.imageshack.us/img502/2774/d6w3tk.jpg&lt;/a&gt; &lt;a href=&quot;\nhttp://img59.imageshack.us/img59/8315/1le7e9.jpg&quot; rel=&quot;nofollow&quot; target=&quot;_NEW&quot;&gt;\nhttp://img59.imageshack.us/img59/8315/1le7e9.jpg&lt;/a&gt;\n","torrent":{"xt":"urn:btih:9c068a1cb35c1d41e9fce82252fd6bc33963a470","amp;dn":"Detention+2010+DVDRip+Xvid+AC3+LKRG","amp;tr":["udp%3A%2F%2Ftracker.openbittorrent.com%3A80","udp%3A%2F%2Fopen.demonii.com%3A1337","udp%3A%2F%2Ftracker.coppersurfer.tk%3A6969","udp%3A%2F%2Fexodus.desync.com%3A6969"],"infoHash":"9c068a1cb35c1d41e9fce82252fd6bc33963a470","infoHashBuffer":{"type":"Buffer","data":[156,6,138,28,179,92,29,65,233,252,232,34,82,253,107,195,57,99,164,112]},"announce":[],"urlList":[]}}